<svg width="12" height="6" viewBox="0 0 12 6" fill="none" xmlns="http://www.w3.org/2000/svg">
<path d="M11.3996 4.76837e-07L0.599331 4.76837e-07C0.489984 0.000229836 0.382799 0.020371 0.289317 0.0582557C0.195834 0.0961409 0.119593 0.150335 0.068799 0.215005C0.0180054 0.279675 -0.00541782 0.352373 0.00105286 0.425272C0.00752258 0.498171 0.0436401 0.568511 0.105517 0.628722L5.50567 5.83801C5.72948 6.054 6.26829 6.054 6.4927 5.83801L11.8929 0.628722C11.9554 0.568637 11.992 0.498261 11.9988 0.425241C12.0057 0.352221 11.9824 0.279348 11.9315 0.21454C11.8807 0.149733 11.8042 0.0954695 11.7105 0.0576458C11.6167 0.0198226 11.5092 -0.000114441 11.3996 4.76837e-07Z" fill="black"/>
</svg>
