<svg width="14" height="19" viewBox="0 0 14 19" fill="none" xmlns="http://www.w3.org/2000/svg">
<path d="M1.13754 5.75H12.2782L11.6121 16.4115C11.5817 16.8981 11.3669 17.3548 11.0115 17.6886C10.6561 18.0225 10.1869 18.2083 9.69929 18.2083H3.71737C3.22979 18.2083 2.76055 18.0225 2.40518 17.6886C2.0498 17.3548 1.83502 16.8981 1.80454 16.4115L1.13754 5.75ZM13.4167 2.875V4.79167H0V2.875H2.875V1.91667C2.875 1.40834 3.07693 0.920823 3.43638 0.561379C3.79582 0.201934 4.28334 0 4.79167 0H8.625C9.13333 0 9.62084 0.201934 9.98029 0.561379C10.3397 0.920823 10.5417 1.40834 10.5417 1.91667V2.875H13.4167ZM4.79167 2.875H8.625V1.91667H4.79167V2.875Z" fill="white"/>
</svg>
