<svg width="17" height="17" viewBox="0 0 17 17" fill="none" xmlns="http://www.w3.org/2000/svg">
<g clip-path="url(#clip0_150_183)">
<path d="M12.0027 0.0391199C12.1687 0.108847 12.2882 0.258261 12.3214 0.434237L12.9822 4.01685L16.5648 4.67428C16.7408 4.70748 16.8902 4.82701 16.9599 4.99303C17.0296 5.15904 17.0097 5.3483 16.9068 5.49771L14.8382 8.49928L16.9068 11.4975C17.0097 11.6469 17.0296 11.8362 16.9599 12.0022C16.8902 12.1682 16.7408 12.2878 16.5648 12.321L12.9822 12.9817L12.3214 16.5643C12.2882 16.7403 12.1687 16.8897 12.0027 16.9594C11.8367 17.0292 11.6474 17.0092 11.498 16.9063L8.49976 14.8378L5.50152 16.9063C5.35211 17.0092 5.16285 17.0292 4.99683 16.9594C4.83082 16.8897 4.71129 16.7403 4.67808 16.5643L4.01734 12.9817L0.434725 12.321C0.258749 12.2878 0.109335 12.1682 0.0396082 12.0022C-0.0301183 11.8362 -0.0101965 11.6469 0.0927332 11.4975L2.16129 8.49928L0.0927332 5.50103C-0.0101965 5.35162 -0.0301183 5.16236 0.0396082 4.99635C0.109335 4.83033 0.258749 4.7108 0.434725 4.6776L4.01734 4.01685L4.67808 0.434237C4.71129 0.258261 4.83082 0.108847 4.99683 0.0391199C5.16285 -0.0306066 5.35211 -0.0106847 5.50152 0.0922449L8.49976 2.1608L11.498 0.0922449C11.6474 -0.0106847 11.8367 -0.0306066 12.0027 0.0391199ZM5.31226 8.49928C5.31226 7.6539 5.64809 6.84315 6.24586 6.24537C6.84363 5.6476 7.65439 5.31178 8.49976 5.31178C9.34514 5.31178 10.1559 5.6476 10.7537 6.24537C11.3514 6.84315 11.6873 7.6539 11.6873 8.49928C11.6873 9.34465 11.3514 10.1554 10.7537 10.7532C10.1559 11.351 9.34514 11.6868 8.49976 11.6868C7.65439 11.6868 6.84363 11.351 6.24586 10.7532C5.64809 10.1554 5.31226 9.34465 5.31226 8.49928ZM12.7498 8.49928C12.7498 7.37211 12.302 6.2911 11.505 5.49407C10.7079 4.69704 9.62693 4.24928 8.49976 4.24928C7.37259 4.24928 6.29159 4.69704 5.49456 5.49407C4.69753 6.2911 4.24976 7.37211 4.24976 8.49928C4.24976 9.62645 4.69753 10.7075 5.49456 11.5045C6.29159 12.3015 7.37259 12.7493 8.49976 12.7493C9.62693 12.7493 10.7079 12.3015 11.505 11.5045C12.302 10.7075 12.7498 9.62645 12.7498 8.49928Z" fill="black" fill-opacity="0.7"/>
</g>
<defs>
<clipPath id="clip0_150_183">
<rect width="17" height="17" fill="white"/>
</clipPath>
</defs>
</svg>
