<svg width="16" height="16" viewBox="0 0 16 16" fill="none" xmlns="http://www.w3.org/2000/svg">
<path d="M0 12.4709V15.7521H3.28125L12.9588 6.07464L9.6775 2.79339L0 12.4709ZM15.4963 3.53714C15.5774 3.45619 15.6417 3.36004 15.6856 3.25418C15.7295 3.14833 15.7521 3.03486 15.7521 2.92026C15.7521 2.80567 15.7295 2.69219 15.6856 2.58634C15.6417 2.48049 15.5774 2.38434 15.4963 2.30339L13.4488 0.255889C13.3678 0.174773 13.2716 0.110419 13.1658 0.06651C13.0599 0.0226012 12.9465 0 12.8319 0C12.7173 0 12.6038 0.0226012 12.498 0.06651C12.3921 0.110419 12.2959 0.174773 12.215 0.255889L10.6138 1.85714L13.895 5.13839L15.4963 3.53714Z" fill="white"/>
</svg>
