<svg width="17" height="17" viewBox="0 0 17 17" fill="none" xmlns="http://www.w3.org/2000/svg">
<path d="M13.345 2.44L11.8044 3.89C12.7405 4.42065 13.5152 5.16993 14.0532 6.06523C14.5911 6.96052 14.8742 7.97144 14.875 9C14.875 10.5913 14.2034 12.1174 13.0078 13.2426C11.8123 14.3679 10.1908 15 8.5 15C6.80925 15 5.18774 14.3679 3.9922 13.2426C2.79665 12.1174 2.125 10.5913 2.125 9C2.125 6.83 3.3575 4.94 5.185 3.88L3.655 2.44C2.52645 3.17273 1.60409 4.1527 0.967368 5.29549C0.330647 6.43827 -0.00134059 7.70962 4.06849e-06 9C4.06849e-06 11.1217 0.895537 13.1566 2.4896 14.6569C4.08365 16.1571 6.24566 17 8.5 17C10.7543 17 12.9163 16.1571 14.5104 14.6569C16.1045 13.1566 17 11.1217 17 9C17 6.28 15.555 3.88 13.345 2.44ZM9.5625 0H7.4375V10H9.5625" fill="white"/>
</svg>
