<svg width="60" height="60" viewBox="0 0 60 60" fill="none" xmlns="http://www.w3.org/2000/svg">
<path d="M30 60C13.431 60 0 46.569 0 30C0 13.431 13.431 0 30 0C46.569 0 60 13.431 60 30C60 46.569 46.569 60 30 60ZM30 54C36.3652 54 42.4697 51.4714 46.9706 46.9706C51.4714 42.4697 54 36.3652 54 30C54 23.6348 51.4714 17.5303 46.9706 13.0294C42.4697 8.52856 36.3652 6 30 6C23.6348 6 17.5303 8.52856 13.0294 13.0294C8.52856 17.5303 6 23.6348 6 30C6 36.3652 8.52856 42.4697 13.0294 46.9706C17.5303 51.4714 23.6348 54 30 54ZM30 15C30.7956 15 31.5587 15.3161 32.1213 15.8787C32.6839 16.4413 33 17.2044 33 18V33C33 33.7957 32.6839 34.5587 32.1213 35.1213C31.5587 35.6839 30.7956 36 30 36C29.2044 36 28.4413 35.6839 27.8787 35.1213C27.3161 34.5587 27 33.7957 27 33V18C27 17.2044 27.3161 16.4413 27.8787 15.8787C28.4413 15.3161 29.2044 15 30 15ZM30 45C29.2044 45 28.4413 44.6839 27.8787 44.1213C27.3161 43.5587 27 42.7957 27 42C27 41.2043 27.3161 40.4413 27.8787 39.8787C28.4413 39.3161 29.2044 39 30 39C30.7956 39 31.5587 39.3161 32.1213 39.8787C32.6839 40.4413 33 41.2043 33 42C33 42.7957 32.6839 43.5587 32.1213 44.1213C31.5587 44.6839 30.7956 45 30 45Z" fill="#A09A9A"/>
</svg>
