<svg width="19" height="19" viewBox="0 0 19 19" fill="none" xmlns="http://www.w3.org/2000/svg">
<path d="M9.49991 5.7C10.5358 5.7 11.5292 6.10036 12.2617 6.81299C12.9942 7.52563 13.4057 8.49218 13.4057 9.5C13.4057 10.5078 12.9942 11.4744 12.2617 12.187C11.5292 12.8996 10.5358 13.3 9.49991 13.3C8.46404 13.3 7.47059 12.8996 6.73812 12.187C6.00565 11.4744 5.59415 10.5078 5.59415 9.5C5.59415 8.49218 6.00565 7.52563 6.73812 6.81299C7.47059 6.10036 8.46404 5.7 9.49991 5.7ZM9.49991 7.6C8.98197 7.6 8.48525 7.80018 8.11901 8.1565C7.75278 8.51282 7.54703 8.99609 7.54703 9.5C7.54703 10.0039 7.75278 10.4872 8.11901 10.8435C8.48525 11.1998 8.98197 11.4 9.49991 11.4C10.0178 11.4 10.5146 11.1998 10.8808 10.8435C11.247 10.4872 11.4528 10.0039 11.4528 9.5C11.4528 8.99609 11.247 8.51282 10.8808 8.1565C10.5146 7.80018 10.0178 7.6 9.49991 7.6ZM7.54703 19C7.30292 19 7.09787 18.829 7.05881 18.601L6.69753 16.0835C6.08237 15.846 5.5551 15.523 5.04735 15.143L2.61602 16.1025C2.4012 16.1785 2.13756 16.1025 2.02039 15.8935L0.0675115 12.6065C0.00774917 12.5086 -0.0133192 12.3929 0.00824621 12.281C0.0298116 12.1691 0.0925343 12.0687 0.184684 11.9985L2.24497 10.4215L2.17662 9.5L2.24497 8.55L0.184684 7.0015C0.0925343 6.93133 0.0298116 6.8309 0.00824621 6.719C-0.0133192 6.6071 0.00774917 6.49138 0.0675115 6.3935L2.02039 3.1065C2.13756 2.8975 2.4012 2.812 2.61602 2.8975L5.04735 3.8475C5.5551 3.477 6.08237 3.154 6.69753 2.9165L7.05881 0.399C7.09787 0.171 7.30292 0 7.54703 0H11.4528C11.6969 0 11.9019 0.171 11.941 0.399L12.3023 2.9165C12.9174 3.154 13.4447 3.477 13.9525 3.8475L16.3838 2.8975C16.5986 2.812 16.8623 2.8975 16.9794 3.1065L18.9323 6.3935C19.0592 6.6025 19.0007 6.859 18.8151 7.0015L16.7548 8.55L16.8232 9.5L16.7548 10.45L18.8151 11.9985C19.0007 12.141 19.0592 12.3975 18.9323 12.6065L16.9794 15.8935C16.8623 16.1025 16.5986 16.188 16.3838 16.1025L13.9525 15.1525C13.4447 15.523 12.9174 15.846 12.3023 16.0835L11.941 18.601C11.9019 18.829 11.6969 19 11.4528 19H7.54703ZM8.76758 1.9L8.4063 4.3795C7.23457 4.617 6.19954 5.225 5.44769 6.0705L3.09447 5.0825L2.36214 6.3175L4.42243 7.79C4.03185 8.89833 4.03185 10.1017 4.42243 11.21L2.35238 12.692L3.08471 13.927L5.45745 12.939C6.20931 13.775 7.23457 14.383 8.39653 14.611L8.75781 17.1H10.242L10.6033 14.6205C11.7652 14.383 12.7905 13.775 13.5424 12.939L15.9151 13.927L16.6474 12.692L14.5774 11.2195C14.968 10.108 14.968 8.9015 14.5774 7.79L16.6377 6.3175L15.9053 5.0825L13.5521 6.0705C12.7849 5.20631 11.7441 4.61479 10.5935 4.389L10.2322 1.9H8.76758Z" fill="#2C55D3"/>
</svg>
