<svg width="20" height="17" viewBox="0 0 20 17" fill="none" xmlns="http://www.w3.org/2000/svg">
<path d="M5.99932 6.75963H5.41932C4.62783 6.73103 3.8389 6.86539 3.10149 7.15439C2.36409 7.44339 1.69395 7.88085 1.13266 8.43963L0.972656 8.6263V14.1463H3.69266V11.013L4.05932 10.5996L4.22599 10.4063C5.09394 9.51463 6.17451 8.85849 7.36599 8.49963C6.76945 8.04572 6.29898 7.44672 5.99932 6.75963Z" fill="black" fill-opacity="0.7"/>
<path d="M18.8935 8.4201C18.3323 7.86132 17.6621 7.42386 16.9247 7.13486C16.1873 6.84586 15.3984 6.71149 14.6069 6.7401C14.3641 6.74079 14.1216 6.75414 13.8802 6.7801C13.5749 7.4247 13.1173 7.98529 12.5469 8.41343C13.8189 8.76533 14.9711 9.45669 15.8802 10.4134L16.0469 10.6001L16.4069 11.0134V14.1534H19.0335V8.60677L18.8935 8.4201Z" fill="black" fill-opacity="0.7"/>
<path d="M5.39992 5.45987H5.60658C5.51056 4.63536 5.65523 3.80069 6.02314 3.0566C6.39104 2.3125 6.96645 1.6908 7.67992 1.26654C7.42129 0.871436 7.06449 0.550274 6.64445 0.334501C6.22441 0.118727 5.75554 0.0157392 5.28374 0.0356214C4.81194 0.0555036 4.35339 0.197574 3.95299 0.447922C3.5526 0.698269 3.22408 1.04831 2.99962 1.46377C2.77515 1.87923 2.66243 2.34586 2.67249 2.81797C2.68256 3.29008 2.81506 3.75149 3.05702 4.157C3.29898 4.56252 3.64211 4.89825 4.05281 5.13131C4.46351 5.36437 4.9277 5.48677 5.39992 5.48654V5.45987Z" fill="black" fill-opacity="0.7"/>
<path d="M14.2858 4.96004C14.2939 5.11326 14.2939 5.26681 14.2858 5.42004C14.4138 5.44032 14.543 5.45146 14.6725 5.45337H14.7992C15.2693 5.4283 15.725 5.28193 16.1217 5.02849C16.5185 4.77506 16.8429 4.4232 17.0633 4.00718C17.2838 3.59116 17.3927 3.12515 17.3796 2.65453C17.3665 2.1839 17.2317 1.72469 16.9884 1.32161C16.7451 0.918526 16.4016 0.585306 15.9913 0.35439C15.581 0.123474 15.1179 0.00273051 14.6471 0.00391488C14.1763 0.00509925 13.7138 0.128171 13.3047 0.361149C12.8956 0.594126 12.5538 0.92907 12.3125 1.33337C12.9159 1.72733 13.412 2.26491 13.7565 2.89788C14.1009 3.53086 14.2828 4.23943 14.2858 4.96004Z" fill="black" fill-opacity="0.7"/>
<path d="M9.91359 7.94633C11.5594 7.94633 12.8936 6.61214 12.8936 4.96633C12.8936 3.32052 11.5594 1.98633 9.91359 1.98633C8.26779 1.98633 6.93359 3.32052 6.93359 4.96633C6.93359 6.61214 8.26779 7.94633 9.91359 7.94633Z" fill="black" fill-opacity="0.7"/>
<path d="M10.0727 9.53332C9.20205 9.49817 8.3333 9.63951 7.51871 9.94885C6.70412 10.2582 5.96053 10.7291 5.33268 11.3333L5.16602 11.52V15.74C5.16862 15.8774 5.19827 16.013 5.25329 16.139C5.30831 16.265 5.38761 16.379 5.48666 16.4743C5.58572 16.5696 5.70259 16.6445 5.83059 16.6947C5.95859 16.7449 6.09523 16.7693 6.23268 16.7667H13.8927C14.0301 16.7693 14.1668 16.7449 14.2948 16.6947C14.4228 16.6445 14.5396 16.5696 14.6387 16.4743C14.7378 16.379 14.8171 16.265 14.8721 16.139C14.9271 16.013 14.9567 15.8774 14.9593 15.74V11.5333L14.7993 11.3333C14.1756 10.7273 13.4346 10.255 12.6218 9.94548C11.809 9.63596 10.9416 9.49571 10.0727 9.53332Z" fill="black" fill-opacity="0.7"/>
</svg>
